<?xml version="1.0" encoding="UTF-8" standalone="no"?>
<!-- Created with Inkscape (http://www.inkscape.org/) -->
<svg xmlns:rdf="http://www.w3.org/1999/02/22-rdf-syntax-ns#" xmlns="http://www.w3.org/2000/svg" height="174" width="144" version="1.1" xmlns:cc="http://creativecommons.org/ns#" xmlns:dc="http://purl.org/dc/elements/1.1/">
	<metadata>
		<rdf:RDF>
			<cc:Work rdf:about="">
				<dc:format>image/svg+xml</dc:format>
				<dc:type rdf:resource="http://purl.org/dc/dcmitype/StillImage"/>
				<dc:title/>
			</cc:Work>
		</rdf:RDF>
	</metadata>
	<g opacity="0.25" transform="matrix(0.13384,0,0,0.13384,0,1.2544)">
		<g transform="matrix(0.99448,0,0,0.99718,1,-340.04)" fill="#000">
			<path fill="#000" d="M49,342c-26.9,0-49,22.1-49,49v612c0,26.9,22.1,49,49,49h264c26.9,0,49-22.1,49-49v-612c0-26.9-22.1-49-49-49z" fill-rule="nonzero"/>
		</g>
		<g transform="translate(0,-342.36)">
			<path fill="#00c85f" d="M49,342c-26.9,0-49,22.1-49,49v612c0,26.9,22.1,49,49,49h264c26.9,0,49-22.1,49-49v-612c0-26.9-22.1-49-49-49zm106,59,52,0c4.4,0,8,3.61,8,8,0,4.4-3.6,8-8,8h-52c-4.4,0-8-3.6-8-8,0-4.39,3.6-7.98,8-8zm-134,56,320,0,0,480-320,0zm160,499c19.3,0,35,15.7,35,35s-15.7,35-35,35-35-15.7-35-35,15.7-35,35-35z" fill-rule="nonzero"/>
		</g>
	</g>
	<g opacity="0.25" transform="matrix(0.09464,0.09464,-0.09464,0.09464,82.235,-2.4056)">
		<g transform="matrix(0.99448,0,0,0.99718,1,-340.04)" fill="#000">
			<path fill="#000" d="M49,342c-26.9,0-49,22.1-49,49v612c0,26.9,22.1,49,49,49h264c26.9,0,49-22.1,49-49v-612c0-26.9-22.1-49-49-49z" fill-rule="nonzero"/>
		</g>
		<g transform="translate(0,-342.36)">
			<path fill="#00c85f" d="M49,342c-26.9,0-49,22.1-49,49v612c0,26.9,22.1,49,49,49h264c26.9,0,49-22.1,49-49v-612c0-26.9-22.1-49-49-49zm106,59,52,0c4.4,0,8,3.61,8,8,0,4.4-3.6,8-8,8h-52c-4.4,0-8-3.6-8-8,0-4.39,3.6-7.98,8-8zm-134,56,320,0,0,480-320,0zm160,499c19.3,0,35,15.7,35,35s-15.7,35-35,35-35-15.7-35-35,15.7-35,35-35z" fill-rule="nonzero"/>
		</g>
	</g>
	<g transform="matrix(0,0.13384,-0.13384,0,143.43,47.834)">
		<g transform="matrix(0.99448,0,0,0.99718,1,-340.04)" fill="#000">
			<path fill="#000" d="M49,342c-26.9,0-49,22.1-49,49v612c0,26.9,22.1,49,49,49h264c26.9,0,49-22.1,49-49v-612c0-26.9-22.1-49-49-49z" fill-rule="nonzero"/>
		</g>
		<g transform="translate(0,-342.36)">
			<path fill="#00c85f" d="M49,342c-26.9,0-49,22.1-49,49v612c0,26.9,22.1,49,49,49h264c26.9,0,49-22.1,49-49v-612c0-26.9-22.1-49-49-49zm106,59,52,0c4.4,0,8,3.61,8,8,0,4.4-3.6,8-8,8h-52c-4.4,0-8-3.6-8-8,0-4.39,3.6-7.98,8-8zm-134,56,320,0,0,480-320,0zm160,499c19.3,0,35,15.7,35,35s-15.7,35-35,35-35-15.7-35-35,15.7-35,35-35z" fill-rule="nonzero"/>
		</g>
	</g>
	<path fill="#00c85f" d="m8.71,113.6c0.734,0.19,1.359,0.54,1.877,1.07,0.518,0.52,1.162,1.56,1.934,3.12l2.865,5.76h-3.063l-2.512-5.32c-0.722-1.6-1.376-2.6-1.96-3-0.574-0.5-1.326-0.7-2.258-0.7h-2.724v8.91h-2.866v-21.08h5.872c2.315,0,4.089,0.53,5.322,1.57,1.233,1.05,1.849,2.56,1.849,4.53,0,1.4-0.381,2.53-1.143,3.42-0.753,0.87-1.816,1.41-3.19,1.61m-5.844-8.78,0,7.48,3.12,0c1.364,0,2.381-0.31,3.049-0.92,0.6681-0.61,1.002-1.55,1.003-2.81,0-1.21-0.3581-2.14-1.073-2.78-0.7058-0.65-1.736-0.97-3.091-0.97h-3.007" fill-opacity="0.94118"/>
	<path fill="#00c85f" d="m27.31,113c0-3.09-0.32-5.3-0.96-6.63-0.63-1.33-1.67-1.99-3.12-1.99-1.439,0-2.479,0.66-3.119,1.99-0.631,1.33-0.946,3.54-0.946,6.63s0.315,5.3,0.946,6.62c0.64,1.33,1.68,1.99,3.119,1.99,1.45,0,2.49-0.65,3.12-1.97,0.64-1.33,0.96-3.54,0.96-6.64m2.978,0c0,3.67-0.583,6.41-1.75,8.22-1.157,1.81-2.927,2.71-5.308,2.71-2.38,0-4.15-0.9-5.307-2.7-1.158-1.79-1.736-4.54-1.736-8.23,0-3.68,0.578-6.42,1.736-8.23,1.167-1.8,2.936-2.71,5.307-2.71,2.381,0,4.151,0.91,5.308,2.71,1.167,1.81,1.75,4.55,1.75,8.23" fill-opacity="0.94118"/>
	<path fill="#00c85f" d="m31.75,102.4,16.08,0,0,2.4-6.592,0,0,18.68-2.866,0,0-18.68-6.62,0,0-2.4" fill-opacity="0.94118"/>
	<path fill="#00c85f" d="m56.33,105-3.007,10.78,6.013,0-3.006-10.78m-1.723-2.52,3.459,0,6.451,21.08-2.95,0-1.553-5.49-7.383,0-1.524,5.49-2.951,0,6.451-21.08" fill-opacity="0.94118"/>
	<path fill="#00c85f" d="m64.85,102.4,16.08,0,0,2.4-6.592,0,0,18.68-2.865,0,0-18.68-6.621,0,0-2.4" fill-opacity="0.94118"/>
	<path fill="#00c85f" d="m83.52,102.4,12.51,0,0,2.4-9.655,0,0,6.24,9.232,0,0,2.4-9.232,0,0,7.64,9.923,0,0,2.4-12.78,0,0-21.08" fill-opacity="0.94118"/>
	<path fill="#00c85f" d="m111.4,102.4,16.08,0,0,2.4-6.6,0,0,18.68-2.86,0,0-18.68-6.62,0,0-2.4" fill-opacity="0.94118"/>
	<path fill="#00c85f" d="m140,113c0-3.09-0.32-5.3-0.96-6.63-0.63-1.33-1.67-1.99-3.12-1.99-1.44,0-2.48,0.66-3.12,1.99-0.63,1.33-0.94,3.54-0.94,6.63s0.31,5.3,0.94,6.62c0.64,1.33,1.68,1.99,3.12,1.99,1.45,0,2.49-0.65,3.12-1.97,0.64-1.33,0.96-3.54,0.96-6.64m2.98,0c0,3.67-0.58,6.41-1.75,8.22-1.16,1.81-2.93,2.71-5.31,2.71s-4.15-0.9-5.31-2.7c-1.15-1.79-1.73-4.54-1.73-8.23,0-3.68,0.58-6.42,1.73-8.23,1.17-1.8,2.94-2.71,5.31-2.71,2.38,0,4.15,0.91,5.31,2.71,1.17,1.81,1.75,4.55,1.75,8.23" fill-opacity="0.94118"/>
	<path fill="#00c85f" d="m0,150.5,0-20.82,4.114,0,0,17.2,8.801,0,0,3.62-12.92,0" fill-opacity="0.94118"/>
	<path fill="#00c85f" d="m21.81,133.5-1.938,8.52,3.891,0-1.953-8.52m-2.51-3.77,5.035,0,5.62,20.82-4.114,0-1.283-5.14-5.509,0-1.255,5.14-4.115,0,5.621-20.82" fill-opacity="0.94118"/>
	<path fill="#00c85f" d="m31.23,129.7,4.421,0,5.802,15.13,0-15.13,3.626,0,0,20.82-4.393,0-5.83-15.13,0,15.13-3.626,0,0-20.82" fill-opacity="0.94118"/>
	<path fill="#00c85f" d="m51.95,133.4,0,13.41,1.116,0c1.618,0,2.771-0.51,3.459-1.53s1.032-2.75,1.032-5.2c0-2.42-0.344-4.14-1.032-5.16-0.688-1.01-1.841-1.52-3.459-1.52h-1.116m-4.114-3.71,4.407,0c3.403,0,5.853,0.82,7.35,2.44s2.245,4.27,2.245,7.95c0,3.69-0.748,6.36-2.245,7.99s-3.947,2.44-7.35,2.44h-4.407v-20.82" fill-opacity="0.94118"/>
	<path fill="#00c85f" d="m69.39,141.4c-2.073-0.79-3.477-1.62-4.212-2.48-0.734-0.88-1.102-2.05-1.102-3.52,0-1.88,0.605-3.37,1.813-4.45,1.209-1.07,2.869-1.61,4.979-1.61,0.958,0,1.916,0.11,2.873,0.33,0.958,0.21,1.906,0.54,2.846,0.96v4.02c-0.884-0.62-1.781-1.1-2.692-1.42-0.911-0.33-1.813-0.49-2.706-0.49-0.995,0-1.757,0.2-2.287,0.6s-0.795,0.97-0.795,1.71c0,0.58,0.191,1.06,0.572,1.44,0.39,0.37,1.199,0.79,2.427,1.24l1.771,0.67c1.673,0.61,2.905,1.43,3.696,2.44,0.79,1.02,1.185,2.29,1.185,3.84,0,2.1-0.623,3.67-1.869,4.71-1.236,1.03-3.11,1.55-5.62,1.55-1.032,0-2.069-0.13-3.11-0.38-1.032-0.24-2.032-0.6-2.999-1.09v-4.25c1.097,0.78,2.157,1.36,3.18,1.74,1.032,0.39,2.05,0.58,3.054,0.58,1.014,0,1.799-0.23,2.357-0.69s0.837-1.11,0.837-1.94c0-0.62-0.186-1.16-0.558-1.63s-0.911-0.84-1.618-1.11l-2.022-0.77" fill-opacity="0.94118"/>
	<path fill="#00c85f" d="m93.7,149.9c-0.651,0.33-1.335,0.58-2.05,0.75-0.716,0.17-1.47,0.25-2.26,0.25-2.808,0-4.951-0.93-6.429-2.78-1.479-1.85-2.218-4.52-2.218-8.02s0.739-6.18,2.218-8.03c1.478-1.85,3.621-2.77,6.429-2.77,0.79,0,1.548,0.1,2.273,0.25,0.726,0.16,1.404,0.42,2.037,0.75v4.57c-0.707-0.65-1.395-1.12-2.064-1.42-0.661-0.3-1.344-0.46-2.051-0.46-1.506,0-2.645,0.6-3.417,1.8-0.762,1.19-1.143,2.96-1.143,5.31s0.381,4.12,1.143,5.32c0.772,1.19,1.911,1.78,3.417,1.78,0.707,0,1.39-0.15,2.051-0.44,0.669-0.31,1.357-0.79,2.064-1.44v4.58" fill-opacity="0.94118"/>
	<path fill="#00c85f" d="m103.6,133.5-1.94,8.52,3.89,0-1.95-8.52m-2.51-3.77,5.04,0,5.62,20.82-4.12,0-1.28-5.14-5.51,0-1.255,5.14-4.114,0,5.619-20.82" fill-opacity="0.94118"/>
	<path fill="#00c85f" d="m117.7,133.2,0,6.11,1.68,0c1.35,0,2.3-0.23,2.84-0.68,0.54-0.46,0.82-1.25,0.82-2.37,0-1.13-0.28-1.92-0.82-2.38-0.54-0.45-1.49-0.68-2.84-0.68h-1.68m-4.12-3.46,5.65,0c2.87,0,4.94,0.51,6.19,1.54,1.27,1.02,1.9,2.68,1.9,4.98,0,2.29-0.63,3.95-1.9,4.97-1.25,1.03-3.32,1.54-6.19,1.54h-1.53v7.79h-4.12v-20.82" fill-opacity="0.94118"/>
	<path fill="#00c85f" d="m143,150.5-12.97,0,0-20.82,12.97,0,0,3.63-8.86,0,0,4.49,8.02,0,0,3.63-8.02,0,0,5.45,8.86,0,0,3.62" fill-opacity="0.94118"/>
	<path fill="#00c85f" d="m8.871,165.3c0-2.47-0.2552-4.24-0.7655-5.29-0.5029-1.06-1.332-1.59-2.488-1.59-1.148,0-1.978,0.53-2.488,1.59-0.5029,1.05-0.7543,2.82-0.7543,5.29,0,2.46,0.2514,4.22,0.7543,5.28,0.5103,1.05,1.34,1.58,2.488,1.58,1.156,0,1.985-0.52,2.488-1.57,0.5103-1.06,0.7655-2.82,0.7655-5.29m2.375,0c0,2.92-0.465,5.11-1.396,6.55-0.927,1.5-2.338,2.2-4.236,2.2-1.899,0-3.31-0.7-4.233-2.2-0.9234-1.4-1.385-3.6-1.385-6.5,0-2.94,0.4616-5.13,1.385-6.57,0.9306-1.44,2.342-2.16,4.233-2.16,1.899,0,3.31,0.72,4.233,2.16,0.9305,1.44,1.396,3.63,1.396,6.57" fill-opacity="0.94118"/>
	<path fill="#00c85f" d="m20.44,165.7c0.585,0.15,1.084,0.43,1.497,0.85s0.927,1.24,1.542,2.49l2.286,4.59h-2.443l-2.004-4.24c-0.578-1.21-1.1-1.99-1.565-2.33-0.458-0.35-1.058-0.53-1.801-0.53h-2.173v7.1h-2.285v-16.8h4.683c1.846,0,3.261,0.41,4.244,1.25,0.983,0.83,1.475,2.03,1.475,3.61,0,1.11-0.304,2.02-0.912,2.72-0.6,0.7-1.448,1.13-2.544,1.29m-4.661-7.01,0,5.97,2.488,0c1.088,0,1.899-0.24,2.432-0.73s0.799-1.24,0.799-2.24c0-0.97-0.285-1.71-0.856-2.22-0.562-0.52-1.384-0.78-2.465-0.78h-2.398" fill-opacity="0.94118"/>
	<path fill="#00c85f" d="m27.35,156.9,9.333,0,0,1.91-3.524,0,0,12.98,3.524,0,0,1.91-9.333,0,0-1.91,3.524,0,0-12.98-3.524,0,0-1.91" fill-opacity="0.94118"/>
	<path fill="#00c85f" d="m40.5,156.9,9.974,0,0,1.91-7.7,0,0,4.98,7.363,0,0,1.91-7.363,0,0,6.09,7.914,0,0,1.91-10.19,0,0-16.8" fill-opacity="0.94118"/>
	<path fill="#00c85f" d="m53.05,156.9,2.882,0,5.674,13.83,0-13.83,2.195,0,0,16.8-2.882,0-5.674-13.83,0,13.83-2.195,0,0-16.8" fill-opacity="0.94118"/>
	<path fill="#00c85f" d="m65.21,156.9,12.82,0,0,1.91-5.257,0,0,14.89-2.286,0,0-14.89-5.279,0,0-1.91" fill-opacity="0.94118"/>
	<path fill="#00c85f" d="m84.82,158.9-2.398,8.6,4.796,0-2.398-8.6m-1.373-2,2.758,0,5.145,16.8-2.353,0-1.238-4.38-5.888,0-1.216,4.38-2.353,0,5.145-16.8" fill-opacity="0.94118"/>
	<path fill="#00c85f" d="m91.61,156.9,12.83,0,0,1.91-5.262,0,0,14.89-2.285,0,0-14.89-5.28,0,0-1.91" fill-opacity="0.94118"/>
	<path fill="#00c85f" d="m106.6,156.9,9.33,0,0,1.91-3.52,0,0,12.98,3.52,0,0,1.91-9.33,0,0-1.91,3.52,0,0-12.98-3.52,0,0-1.91" fill-opacity="0.94118"/>
	<path fill="#00c85f" d="m127.7,165.3c0-2.47-0.25-4.24-0.76-5.29-0.51-1.06-1.34-1.59-2.49-1.59s-1.98,0.53-2.49,1.59c-0.5,1.05-0.75,2.82-0.75,5.29,0,2.46,0.25,4.22,0.75,5.28,0.51,1.05,1.34,1.58,2.49,1.58s1.98-0.52,2.49-1.57c0.51-1.06,0.76-2.82,0.76-5.29m2.38,0c0,2.92-0.47,5.11-1.4,6.55-0.92,1.44-2.33,2.16-4.23,2.16s-3.31-0.72-4.23-2.15c-0.93-1.43-1.39-3.62-1.39-6.56s0.46-5.13,1.39-6.57,2.34-2.16,4.23-2.16c1.9,0,3.31,0.72,4.23,2.16,0.93,1.44,1.4,3.63,1.4,6.57" fill-opacity="0.94118"/>
	<path fill="#00c85f" d="m132.2,156.9,2.88,0,5.67,13.83,0-13.83,2.2,0,0,16.8-2.88,0-5.68-13.83,0,13.83-2.19,0,0-16.8" fill-opacity="0.94118"/>
</svg>
