<?xml version="1.0" encoding="UTF-8" standalone="no"?>
<!-- Created with Inkscape (http://www.inkscape.org/) -->
<svg xmlns:rdf="http://www.w3.org/1999/02/22-rdf-syntax-ns#" xmlns="http://www.w3.org/2000/svg" height="186" width="170" version="1.1" xmlns:cc="http://creativecommons.org/ns#" xmlns:dc="http://purl.org/dc/elements/1.1/">
	<metadata>
		<rdf:RDF>
			<cc:Work rdf:about="">
				<dc:format>image/svg+xml</dc:format>
				<dc:type rdf:resource="http://purl.org/dc/dcmitype/StillImage"/>
				<dc:title/>
			</cc:Work>
		</rdf:RDF>
	</metadata>
	<path stroke-linejoin="round" d="m69.2,59.6c-22.8,8.15-39.8,8.83-52,3.39-2.24-5.44-11.2-9.37-0.884,7.49-1.97-1.22-3.66-2.43-5.63-2.54-12.2,2.63-7.07,3.86,0.68,3.73-5.86,1.51-10.6,2.93-10.9,3.62-0.252,0.7,3.79,1.36,9.93,0.84-21.4,4.36,5.09,7.41,11.2,1.93,13.5,11.6,26,13.1,38,9.79,3.31,10.9,4.17,20.6,4.5,30.1-8.84,18.4-15.1,35.9-19.4,52.8-5.96-0.59-8.98-0.7-10.4-0.55,2.47,5.83,9.45,7.88,16.3,10.1,2.35,3.19,4.69,3.92,7.07,3.38,1.93,2.3,6.66-12.1,10.7-22.4,4-8.9,8.77-14.1,13.5-19.4l23.9,35.4c10.2,15.4,17.7,7.15,16.3-3.91-2.38-18.6-9.31-36.6-16.9-54.5,0.93-11.6,1.89-20,2.82-28.6,14.8,3.8,28.4,2.74,40.2-6.18,25.4,4.53,15.5,0.34,8.71-3.08,19.4,0.27,10.7-2.59,0.28-5.61,22-5.29,8.84-4.29-3.94-3.37,7.28-7.89,9.59-16.2-5.07-4.22-19.9,6.28-33.9-4.24-50.1-8.43,1.23-2.24,2.2-4.72,4.51-5.89,3.14,0.56,10-6.11,5.35-10.1,7.07-10.8,9.12-22-2.82-34.5-1.11-1.69-1.65-3.66-5.63-3.93-5.72-6.77-9.59-4.49-12.6,1.4-5.78-4.02-8.64,1.72-12.4,4.49-1.5,0.79-3-0.711-4.5-1.68,1.58-2.99,0.754-3.01-2.54,0-0.32,2.38-1.25,4.97-0.56,7-0.313,1.28-1.39,3.2-1.41,5.62,0.622,2.72,1.5,5.36,1.41,5.9-6.07,14.7-1.63,23.4,2.53,32.3z" stroke="#00c859" stroke-linecap="round" stroke-miterlimit="4" stroke-dasharray="none" stroke-width="1.00192" fill="none"/>
	<g fill="#00c859" transform="matrix(0.67947,0,0,0.67766,1.789,-530.03)">
		<path fill="#00c859" d="m117,858c-0.83-1.57,0.25-2.65,2.25-2.22,2.05,0.43,2.5,0.9,2.09,2.19-0.47,1.49-3.55,1.51-4.34,0zm-0.99-3.81c-0.7-0.38-2.16-1.49-3.25-2.47-1.27-1.15-2.5-1.8-3.39-1.8-1.51,0-2.97-1.58-2.97-3.17,0-0.5,0.37-1.49,0.82-2.18,0.93-1.41,2.15-1.31,3.78,0.33,0.53,0.53,1.63,0.97,2.43,0.97,0.82,0,1.58,0.29,1.7,0.64,0.26,0.77,9.16,0.65,9.41-0.13,0.1-0.28,0.98-0.51,1.94-0.51,2.24,0,3.72-0.8,3.72-1.99,0-0.51,0.36-1.22,0.79-1.58,0.66-0.56,1.12-0.31,3.02,1.56,2.49,2.44,2.69,3.34,1.57,7.07-0.86,2.87-1.63,2.82-2.55-0.11-0.22-0.76-0.45-0.81-1.54-0.31-0.71,0.32-1.29,0.78-1.29,1.01,0,0.24-0.29,0.44-0.64,0.44-0.34,0-1.2,0.45-1.89,1-0.7,0.54-1.76,0.99-2.37,1-0.62,0-1.26,0.23-1.42,0.52-0.46,0.73-6.36,0.51-7.84-0.29zm10.2-3.03c0.94-0.44,2.12-1.02,2.6-1.28,0.48-0.25,1.19-0.47,1.58-0.47s0.99-0.34,1.33-0.75c1.03-1.25-0.77-1.53-3.77-0.59-4.46,1.41-14.7,0.91-16.8-0.82-0.42-0.33-0.64-0.31-0.64,0,0,1.12,0.65,2.13,1.38,2.13,0.72,0,3.63,1.14,5.2,2.04,1.3,0.75,7.3,0.55,9.17-0.3zm-7.66-15.9c-1.46-2.76-1.39-4.29,0.29-6.3,2.56-3.06,3.65-4.55,3.66-4.97,0-0.58,1.11-1.61,2.15-2,1.01-0.38,1.2,0.59,0.42,2.04-0.27,0.48-0.77,1.62-1.14,2.53-0.36,0.91-0.81,1.65-0.98,1.65-0.18,0-0.71,0.81-1.18,1.81-0.77,1.62-0.78,2.01-0.11,3.99,1.28,3.75-1.23,4.76-3.11,1.25zm17.4-7.98c-0.59-0.68-0.57-5.15,0-6.56,0.72-1.68,2.21-1.05,2.81,1.17,0.45,1.72,0.4,2.35-0.36,3.9-1.01,2.03-1.65,2.42-2.46,1.49zm-26-3c-0.84-1.57-0.42-5.66,0.7-6.79,0.64-0.63,1.02-0.69,1.7-0.26,1.27,0.82,1.2,5.79-0.1,7.24-1.22,1.35-1.49,1.33-2.3-0.19zm31-8.29c-2.28-1.63-2.68-2.43-1.96-4,1.04-2.29,2.76-1.68,4.41,1.59,1.93,3.82,0.94,4.8-2.45,2.41zm-29.5-3.89c-0.56-0.68-0.45-1.02,0.77-2.3,2.1-2.2,3.27-2.02,3.27,0.53,0,1.65-0.18,2.02-0.97,2.02-0.53,0-1.29,0.12-1.69,0.27-0.39,0.15-1.02-0.1-1.38-0.52z"/>
	</g>
</svg>
